,
.   http://www.scenetime.com/signup.php  ---&gt;  Hottest scene tracker on the net !!!  

    seed back for speed


 



...................................NFO:.................................................{\rtf1\ansi\deff0{\fonttbl{\f0\fnil\fcharset0 Calibri;}}
{\*\generator Msftedit 5.41.21.2509;}\viewkind4\uc1\pard\sa200\sl276\slmult1\lang9\f0\fs22 SCR0N\par
   General\par
      Complete name : Take.Me.Home.Tonight.2011.DVDRip.XViD.AC3-SCR0N\par
      Format : AVI\par
      Format/Info : Audio Video Interleave\par
      Format profile : OpenDML\par
      File size : 694 MiB\par
      Duration : 1h 37mn\par
      Overall bit rate : 997 Kbps\par
      Writing application : AVI-Mux GUI 1.17.8.3, Feb 16 201019:42:50\par
   Video #0\par
      ID : 0\par
      Format : AVC\par
      Format/Info : Advanced Video Codec\par
      Format profile : Baseline@L2.2\par
      Format settings, CABAC : No\par
      Format settings, ReFrames : 1 frame\par
      Codec ID : H264\par
      Duration : 1h 37mn\par
      Bit rate : 768 Kbps\par
      Width : 624 pixels\par
      Height : 256 pixels\par
      Display aspect ratio : 2.40:1\par
      Frame rate : 23.976 fps\par
      Original frame rate : 24.000 fps\par
      Resolution : 24 bits\par
      Colorimetry : 4:2:0\par
      Scan type : Progressive\par
      Bits/(Pixel*Frame) : 0.200\par
      Stream size : 534 MiB (77%)\par
   Audio #1\par
      ID : 1\par
      Format : AC-3\par
      Format/Info : Audio Coding 3\par
      Codec ID : 2000\par
      Duration : 1h 37mn\par
      Bit rate mode : Constant\par
      Bit rate : 224 Kbps\par
      Channel(s) : 6 channels\par
      Channel positions : Front: L C R, Surround: L R, LFE\par
      Sampling rate : 48.0 KHz\par
      Stream size : 156 MiB (22%)\par
      Alignment : Aligned on interleaves\par
      Interleave, duration : 64 ms (1.53 video frames)\par
      Interleave, preload duration : 192 ms\par
      \par
}
 